<?xml version="1.0" encoding="UTF-8" standalone="no"?>
<svg
   id="svg-email"
   viewBox="0 0 245.914 245.914"
   version="1.1"
   sodipodi:docname="hackster-dark.svg"
   inkscape:version="1.4 (e7c3feb100, 2024-10-09)"
   xmlns:inkscape="http://www.inkscape.org/namespaces/inkscape"
   xmlns:sodipodi="http://sodipodi.sourceforge.net/DTD/sodipodi-0.dtd"
   xmlns="http://www.w3.org/2000/svg"
   xmlns:svg="http://www.w3.org/2000/svg"
   xmlns:rdf="http://www.w3.org/1999/02/22-rdf-syntax-ns#"
   xmlns:cc="http://creativecommons.org/ns#"
   xmlns:dc="http://purl.org/dc/elements/1.1/">
  <metadata
     id="metadata19">
    <rdf:rdf>
      <cc:work
         rdf:about="">
        <dc:format>image/svg+xml</dc:format>
        <dc:type
           rdf:resource="http://purl.org/dc/dcmitype/StillImage" />
        <dc:title />
      </cc:work>
    </rdf:rdf>
  </metadata>
  <sodipodi:namedview
     pagecolor="#ffffff"
     bordercolor="#666666"
     borderopacity="1"
     objecttolerance="10"
     gridtolerance="10"
     guidetolerance="10"
     inkscape:pageopacity="0"
     inkscape:pageshadow="2"
     inkscape:window-width="2490"
     inkscape:window-height="1408"
     id="namedview17"
     showgrid="false"
     inkscape:zoom="0.95968509"
     inkscape:cx="-24.487199"
     inkscape:cy="-43.243352"
     inkscape:window-x="70"
     inkscape:window-y="32"
     inkscape:window-maximized="1"
     inkscape:current-layer="Group_1"
     inkscape:showpageshadow="2"
     inkscape:pagecheckerboard="0"
     inkscape:deskcolor="#d1d1d1" />
  <defs
     id="defs4">
    <style
       id="style2">
                    .cls-1 {
                      fill: #fff;
                    }
                    .cls-2 {
                      fill: #000;
                    }
                    .cls-3 {
                      fill: #feffff;
                    }
                  </style>
  </defs>
  <g
     id="Group_1"
     data-name="Group 1"
     transform="matrix(1.5946462,0,0,1.9009285,6.27782,7.387)">
    <path
       id="Path_1"
       data-name="Path 1"
       class="cls-2"
       d="m 86.654,78.631 h 25.513 c 3.328,0 4.271,0.943 4.326,4.271 0.055,4.049 0,8.153 0,12.2 0,3.05 0.666,3.716 3.827,3.771 7.488,0.055 14.975,0 22.463,0 0.721,0 1.5,-0.055 2.219,0 1.054,0.111 2.052,0.277 2.219,1.608 0.167,1.331 -0.776,1.775 -1.775,2.052 -3.882,1.109 -7.82,2.219 -11.7,3.272 -12.812,3.494 -25.624,6.933 -38.436,10.427 -3.882,1.054 -4.714,0.444 -4.714,-3.716 v -8.874 c 0,-4.049 -0.444,-4.493 -4.437,-4.493 H 36.571 A 18.761,18.761 0 0 1 33.521,98.983 3,3 0 0 1 30.636,95.6 c 0.055,-4.271 0,-8.486 0,-12.757 0,-3.55 -0.666,-4.271 -4.16,-4.271 H 2.627 C 1.518,78.52 0.3,78.464 0.076,77.022 -0.148,75.58 0.908,75.137 2.017,74.8 c 3,-0.887 5.99,-1.719 9.041,-2.551 13.588,-3.716 27.232,-7.377 40.821,-11.037 3.827,-1.054 4.382,-0.555 4.382,3.383 v 9.155 c 0,3.993 1,4.936 4.881,4.936 8.485,-0.055 17.026,-0.055 25.512,-0.055 z"
       transform="translate(-0.046,-27.091)"
       inkscape:connector-curvature="0"
       style="fill:#000000" />
    <path
       id="Path_2"
       data-name="Path 2"
       class="cls-2"
       d="m 189.157,21.608 v 17.415 c 0,3.494 -0.943,4.382 -4.437,4.437 h -17.138 c -3.439,0 -4.326,-0.887 -4.326,-4.16 0,-9.6 0.056,-19.19 -0.055,-28.785 0,-2.94 1.165,-4.6 4.049,-5.38 5.879,-1.5 11.7,-3.161 17.582,-4.714 3.272,-0.887 4.271,-0.166 4.326,3.217 z"
       transform="translate(-72.71,-0.073)"
       inkscape:connector-curvature="0"
       style="fill:#000000" />
    <path
       id="Path_3"
       data-name="Path 3"
       class="cls-2"
       d="m 55.189,166.919 v -17.748 c 0,-3.605 0.61,-4.271 4.1,-4.271 h 17.752 c 3.106,0 3.772,0.666 3.772,3.771 0,9.872 -0.055,19.745 0.055,29.673 0,2.662 -1.109,4.1 -3.605,4.77 -6.156,1.608 -12.257,3.328 -18.414,4.992 -2.607,0.666 -3.605,-0.111 -3.605,-2.884 -0.111,-6.101 -0.055,-12.202 -0.055,-18.303 z"
       transform="translate(-24.599,-64.574)"
       inkscape:connector-curvature="0"
       style="fill:#000000" />
  </g>
</svg>
