<svg id="svg-email" height="20" class="octicon octicon-mail mr-2 v-align-middle" fill="#ffffff" aria-label="email" xmlns="http://www.w3.org/2000/svg" viewBox="0 0 480 480">
                    <path stroke="white" stroke-width="0.001%" d="m 215.61523,10.025391 c -4.00256,0.181878 -8.01935,-0.0021 -12.00817,0.444676 -7.31864,0.549714 -14.68698,1.32163 -21.94025,2.620113 -3.48731,0.592333 -6.92883,1.299461 -10.29864,2.053524 -26.70913,6.018179 -52.15669,17.486472 -74.419295,33.41447 -17.880891,12.784236 -33.738641,28.420852 -46.759422,46.113701 -0.925959,1.257053 -2.042817,2.813957 -2.939453,4.09375 -4.356525,6.235535 -8.373269,12.708045 -12.021484,19.382815 -0.922233,1.6932 -1.921204,3.57148 -2.825854,5.36231 -6.362977,12.49006 -11.444936,25.63194 -15.135084,39.15527 -0.455184,1.71566 -0.96604,3.63371 -1.400091,5.44017 -1.453249,5.95265 -2.643385,11.99812 -3.564753,18.09498 -0.292457,1.97274 -0.593382,4.15006 -0.836103,6.20851 -0.713218,6.14473 -1.186661,12.44386 -1.367022,18.5493 -0.1557317,5.40971 -0.1019474,10.86827 0.152983,16.21145 0.491057,10.30804 1.765527,20.57653 3.782564,30.69676 0.190032,0.92143 0.438546,2.11475 0.654699,3.14054 0.439225,1.99835 0.901906,3.9912 1.38827,5.9786 0.210941,0.83232 0.472076,1.88527 0.70477,2.74592 1.038333,3.95685 2.182298,7.83191 3.469939,11.75488 2.540405,7.72352 5.599493,15.49004 9.077628,22.9282 1.02551,2.18757 2.081138,4.36528 3.151516,6.45232 16.422975,32.23289 41.430884,60.02663 71.745092,79.76634 14.13869,9.23457 29.41576,16.72432 45.37449,22.24687 7.39887,2.54659 15.09628,4.73562 22.80348,6.42078 1.99284,0.44577 3.99568,0.84338 5.99926,1.23742 0.94585,0.16684 2.16482,0.39256 3.21561,0.58203 4.69052,0.81033 9.40822,1.46018 14.14181,1.96094 0.74354,0.0742 1.79204,0.1713 2.65266,0.25428 2.42561,0.21151 5.093,0.39066 7.61101,0.65588 2.0811,0.40158 4.1911,-0.0214 6.28852,0.12608 3.18569,0.0895 6.37381,0.14941 9.55757,-0.0184 2.00159,0.023 4.00852,0.12421 5.99815,-0.15678 6.27607,-0.37501 12.54409,-0.9342 18.7677,-1.84076 1.87509,-0.27536 4.02755,-0.6073 5.8919,-0.9327 1.96911,-0.3391 3.89576,-0.70512 5.88874,-1.1032 3.81499,-0.7776 7.86531,-1.71631 11.74713,-2.74902 3.43814,-0.91003 6.7468,-1.88842 10.1142,-2.96387 1.44675,-0.46602 3.10835,-1.01428 4.54559,-1.51996 33.93055,-11.72456 64.62311,-32.54548 88.21949,-59.58348 4.01416,-4.58394 7.81796,-9.35044 11.41851,-14.2657 0.92576,-1.26888 1.96248,-2.72922 2.91016,-4.08594 5.74974,-8.27641 10.99254,-17.14475 15.49012,-26.248 8.19208,-16.49848 14.11223,-34.11377 17.60949,-52.19732 0.17107,-0.94293 0.38494,-2.02741 0.55593,-3.01971 1.79203,-10.01263 2.80683,-20.15966 3.10227,-30.32599 0.10091,-3.62865 0.11931,-7.4113 0.0257,-11.09887 -0.23693,-9.88174 -1.19295,-19.93199 -2.87148,-29.74632 -0.57755,-3.39167 -1.20381,-6.58861 -1.94871,-9.96308 -4.79192,-21.70117 -13.15986,-42.598 -24.62344,-61.63509 -0.99373,-1.64706 -2.11233,-3.45409 -3.19714,-5.13752 C 371.13312,73.719487 341.91931,47.63631 307.98004,31.035756 286.69182,20.582414 263.57683,13.870683 240.00391,11.273438 c -1.05199,-0.103341 -2.20116,-0.234368 -3.29821,-0.331458 -3.39733,-0.314923 -6.70926,-0.55676 -10.06402,-0.735926 -3.14126,-0.105751 -6.28501,-0.101605 -9.42723,-0.188016 -0.53307,0.0025 -1.06614,0.0049 -1.59922,0.0074 z m 34.00586,29.646484 c 10.06786,3.578791 20.1826,7.023656 30.22035,10.686136 25.34588,9.494253 48.37508,24.962342 66.98735,44.590593 3.43466,3.49826 6.86817,6.997666 10.30402,10.494756 -13.37866,3.6978 -26.81734,7.3383 -40.56915,9.37308 -6.21231,0.98495 -12.45365,1.7713 -18.69257,2.56637 -7.46898,-13.97018 -15.66692,-27.562639 -24.8384,-40.485116 -7.12468,-10.067314 -14.85225,-19.847538 -22.31515,-29.725772 -2.46637,-3.238965 -4.93277,-6.477907 -7.39918,-9.716844 2.10091,0.738932 4.20182,1.477865 6.30273,2.216797 z m -63.76367,3.298828 c -7.36395,9.755396 -14.88281,19.394372 -22.12109,29.244141 -8.52349,11.64045 -16.37772,23.887578 -23.45229,36.502766 -1.34088,2.40173 -2.68309,4.80271 -4.02427,7.20427 -14.6725,-1.85261 -29.31496,-4.13857 -43.6781,-7.70927 -2.517079,-0.49286 -4.664896,-2.07779 -6.499534,-3.79111 -2.359891,-2.62307 -1.820369,-7.102598 0.924258,-9.249887 6.607328,-6.64205 13.408696,-13.124238 20.860216,-18.820738 15.99031,-12.405725 34.14025,-21.955746 53.30015,-28.436676 9.5922,-3.438196 19.18441,-6.876375 28.7766,-10.31459 -1.36198,1.790365 -2.72396,3.58073 -4.08594,5.371094 z m 32.35938,11.763672 c 9.42149,10.676302 18.70359,21.59024 27.13364,33.109652 4.99413,6.801168 9.83923,13.726073 14.29604,20.890353 1.83278,3.72176 0.22248,8.71775 -3.50586,10.58398 -2.62272,1.37502 -5.66011,0.87508 -8.49943,1.05675 -26.86682,0.58281 -53.74469,-0.172 -80.57478,-1.588 9.49289,-14.69448 19.13934,-29.336405 30.17879,-42.931235 6.23654,-7.828144 12.86088,-15.334775 19.46964,-22.848063 0.50065,0.575521 1.00131,1.151042 1.50196,1.726563 z M 63.929688,129.19141 c 8.757148,3.14781 17.623007,6.04087 26.705183,8.10398 8.974394,2.11864 18.062309,3.74064 27.162009,5.2007 2.55583,-0.0265 4.79543,2.57123 4.20312,5.10157 -0.49817,1.95271 -1.32164,3.80488 -1.90253,5.7344 -1.36219,4.06027 -2.63969,8.19341 -3.78234,12.2526 -2.75817,9.77755 -4.84077,19.74701 -6.11976,29.82708 -0.3374,2.43615 -0.67338,4.87263 -1.00982,7.30896 -23.308597,0 -46.617191,0 -69.925784,0 1.672958,-14.02015 4.155247,-28.01136 8.653502,-41.4255 3.690461,-11.33852 8.717403,-22.19829 14.397279,-32.66825 0.539713,0.18815 1.079427,0.37631 1.619141,0.56446 z m 309.410152,1.95507 c 4.30325,8.47412 8.40398,17.07816 11.55709,26.0558 4.08208,11.35271 6.87811,23.14324 8.67498,35.06496 0.96356,3.98382 -1.24164,8.62094 -5.19969,9.97813 -2.45099,0.87826 -5.08775,0.35619 -7.62613,0.48607 -18.86197,-0.0238 -37.72395,-0.008 -56.58593,-0.0107 -0.89242,-7.10997 -1.85083,-14.26047 -3.24817,-21.2385 -1.52789,-7.87102 -3.63658,-15.73753 -6.08642,-23.43359 -1.38307,-4.35191 -2.81397,-8.68847 -4.2201,-13.03299 14.08643,-2.22679 28.14087,-4.5024 41.8649,-8.5003 1.48324,-0.42271 2.93399,-0.88574 4.34408,-1.32196 3.95971,-1.2712 7.67871,-2.6401 11.56231,-4.1014 1.38621,-0.52328 2.77244,-1.04653 4.1584,-1.57048 0.26823,0.54167 0.53645,1.08334 0.80468,1.625 z m -218.45898,15.50196 c 13.07658,0.94702 26.16891,1.6879 39.30078,2.13086 20.58263,0.60649 41.3979,0.82443 62.00159,0.15176 8.1043,-0.26483 16.20189,-0.69649 24.29919,-1.11856 5.8694,14.24777 10.64312,29.01416 13.20508,44.23438 1.29603,4.13649 -1.18083,9.17682 -5.4443,10.3204 -2.47315,0.66985 -5.05236,0.21825 -7.57484,0.35148 -47.60625,6.4e-4 -95.2125,0.001 -142.81875,0.002 1.99604,-12.33042 4.29504,-24.66863 8.27553,-36.53467 2.13485,-6.65246 4.7288,-13.14281 7.29478,-19.6372 0.48698,0.0332 0.97396,0.0664 1.46094,0.0996 z m 171.73633,84.80273 c 3.41391,0.0963 6.84143,0.0132 10.26054,0.041 19.35391,0 38.70782,0 58.06172,0 -1.55654,13.40525 -3.92433,26.76742 -8.05147,39.63858 -3.33426,10.61023 -7.8813,20.79436 -12.93063,30.68941 -0.37972,0.76109 -0.75933,1.52222 -1.13899,2.28334 -5.95808,-2.37396 -11.97393,-4.61493 -18.11133,-6.48438 -11.57236,-3.56091 -23.64794,-5.84215 -35.64291,-7.79179 -1.93491,-0.31847 -3.87904,-0.62403 -5.80665,-0.93333 -1.31568,-0.27986 -2.16672,-1.87856 -1.53343,-3.09129 3.52453,-10.72532 6.96893,-21.57426 9.11321,-32.70307 1.30722,-6.52587 2.22943,-13.12471 3.09244,-19.7188 0.24218,-1.22716 1.441,-2.11382 2.6875,-1.92969 z m -179.16407,0.0371 c 49.36459,0.001 98.72917,0.003 148.09376,0.004 -1.98866,12.27553 -4.27746,24.55528 -8.2047,36.38013 -1.94202,6.0281 -4.24988,11.92729 -6.48476,17.85034 -26.74579,-1.68104 -53.63673,-1.95787 -80.48777,-1.20878 -14.52816,0.36399 -29.08075,1.13135 -43.57544,2.16793 -1.22721,-0.0128 -2.64171,0.52834 -3.68483,-0.37908 -0.89784,-0.71763 -0.96138,-1.97147 -1.47579,-2.93947 -5.28195,-13.23472 -9.51757,-26.93415 -11.89834,-41.00015 -1.26721,-3.93507 0.75219,-8.74304 4.67881,-10.25764 0.95839,-0.41041 2.00072,-0.59097 3.03906,-0.61719 z m -106.001948,0.004 c 22.591146,0 45.182292,0 67.773438,0 0.61489,4.77313 1.21701,9.52599 2,14.2832 0.64027,3.86506 1.39347,7.88259 2.26498,11.76935 0.37473,1.70179 0.75302,3.26733 1.16666,4.93964 0.37437,1.45571 0.80168,3.13568 1.23558,4.66707 2.13387,7.73608 4.72352,15.25266 7.27701,22.86707 -0.81114,0.24193 -1.88244,0.32742 -2.79497,0.50826 -12.69209,2.05979 -25.387533,4.27253 -37.795745,7.69197 -2.453369,0.68013 -5.058024,1.45057 -7.546875,2.24219 -0.790671,0.26355 -2.028212,0.67214 -2.796875,0.92187 -3.421867,1.19924 -6.843838,2.39819 -10.265625,3.59766 -6.949522,-12.86153 -12.766971,-26.3857 -16.605082,-40.51101 -2.569943,-9.22627 -4.188606,-18.72895 -5.515662,-28.17222 -0.23969,-1.60169 -0.479387,-3.20337 -0.7191,-4.80505 0.774089,0 1.548177,0 2.322266,0 z m 188.533208,81.39062 c 12.48865,0.0419 24.97387,0.36744 37.45898,0.64063 -9.4793,14.81625 -19.06643,29.61119 -30.1033,43.33196 -6.59537,8.35475 -13.60341,16.37104 -20.65842,24.33796 -14.70773,-16.20858 -28.5216,-33.28741 -40.46875,-51.64679 -3.26621,-4.95567 -6.53428,-9.91011 -9.79883,-14.86688 21.17512,-1.03473 42.36684,-1.81983 63.57032,-1.79688 z m 69.61523,3.39844 c 14.70112,1.77038 29.38258,4.07142 43.67969,7.99609 4.39727,0.52549 7.84243,5.17819 6.85937,9.53907 -0.42298,2.7427 -2.56015,4.68725 -4.42512,6.54586 -16.39223,17.06245 -36.15321,30.90127 -57.89125,40.26854 -6.02263,2.64022 -12.21457,4.86329 -18.43978,6.97137 -8.67243,3.046 -17.34515,6.09119 -26.01729,9.13805 7.52827,-10.02196 15.22232,-19.91384 22.74429,-29.94079 7.7784,-10.32125 15.03273,-21.03697 21.67701,-32.12306 0.92447,-1.54616 1.95441,-3.27108 2.84432,-4.82457 2.63279,-4.5276 5.12122,-9.13635 7.60938,-13.74439 0.45313,0.0579 0.90625,0.11589 1.35938,0.17383 z m -163.0625,2.49023 c 3.06765,5.57039 6.12379,11.03615 9.41229,16.48508 6.39088,10.65807 13.50736,21.08547 20.98345,31.09991 2.17044,2.95998 4.52185,5.91552 6.7325,8.91297 1.03095,1.4803 1.49621,3.26977 1.5468,5.05601 0.14707,0.98037 0.33938,1.95334 0.5066,2.93041 -1.27868,0.76497 -2.38369,1.75197 -3.43507,2.79776 -1.88962,1.86255 -4.77897,2.28502 -7.27078,1.60338 -2.04596,-0.59194 -4.00854,-1.44634 -6.03004,-2.11992 -9.32323,-3.33286 -18.46021,-7.22942 -27.13973,-12.00812 -16.53431,-9.01057 -31.58738,-20.68475 -44.56847,-34.3162 -3.341558,-3.36779 -6.683246,-6.73545 -10.02466,-10.10338 14.533834,-3.70353 29.12463,-7.38875 43.98841,-9.47242 4.8686,-0.74912 9.75473,-1.37637 14.63268,-2.06079 0.22201,0.39844 0.44401,0.79688 0.66602,1.19531 z"/>
            </svg>